<svg id="visual" viewBox="0 0 1920 1080" width="1920" height="1080" xmlns="http://www.w3.org/2000/svg" xmlns:xlink="http://www.w3.org/1999/xlink" version="1.1"><rect x="0" y="0" width="1920" height="1080" fill="#000000"></rect><path d="M0 744L45.7 772C91.3 800 182.7 856 274.2 877.2C365.7 898.3 457.3 884.7 548.8 871.5C640.3 858.3 731.7 845.7 823 818.5C914.3 791.3 1005.7 749.7 1097 749.7C1188.3 749.7 1279.7 791.3 1371.2 802.5C1462.7 813.7 1554.3 794.3 1645.8 795.3C1737.3 796.3 1828.7 817.7 1874.3 828.3L1920 839L1920 1081L1874.3 1081C1828.7 1081 1737.3 1081 1645.8 1081C1554.3 1081 1462.7 1081 1371.2 1081C1279.7 1081 1188.3 1081 1097 1081C1005.7 1081 914.3 1081 823 1081C731.7 1081 640.3 1081 548.8 1081C457.3 1081 365.7 1081 274.2 1081C182.7 1081 91.3 1081 45.7 1081L0 1081Z" fill="#0066FF" stroke-linecap="round" stroke-linejoin="miter"></path></svg>