<svg id="visual" viewBox="0 0 1920 1080" width="1920" height="1080" xmlns="http://www.w3.org/2000/svg" xmlns:xlink="http://www.w3.org/1999/xlink" version="1.1"><rect x="0" y="0" width="1920" height="1080" fill="#000000"></rect><defs><linearGradient id="grad1_0" x1="43.8%" y1="100%" x2="100%" y2="0%"><stop offset="14.444444444444446%" stop-color="#000000" stop-opacity="1"></stop><stop offset="85.55555555555554%" stop-color="#000000" stop-opacity="1"></stop></linearGradient></defs><defs><linearGradient id="grad2_0" x1="0%" y1="100%" x2="56.3%" y2="0%"><stop offset="14.444444444444446%" stop-color="#000000" stop-opacity="1"></stop><stop offset="85.55555555555554%" stop-color="#000000" stop-opacity="1"></stop></linearGradient></defs><g transform="translate(1920, 1080)"><path d="M-648 0C-646 -92.2 -643.9 -184.4 -598.7 -248C-553.4 -311.6 -465 -346.5 -402.3 -402.3C-339.7 -458.2 -302.7 -534.9 -239.9 -579.3C-177.2 -623.7 -88.6 -635.8 0 -648L0 0Z" fill="#FBAE3C"></path></g><g transform="translate(0, 0)"><path d="M648 0C643.9 89.9 639.7 179.8 598.7 248C557.6 316.2 479.6 362.7 415.8 415.8C351.9 468.8 302.3 528.4 235.4 568.2C168.4 608 84.2 628 0 648L0 0Z" fill="#FBAE3C"></path></g></svg>